<mxfile host="app.diagrams.net" modified="2022-11-17T18:41:54.898Z" agent="5.0 (Windows NT 10.0; Win64; x64) AppleWebKit/537.36 (KHTML, like Gecko) Chrome/107.0.0.0 Safari/537.36" etag="PdKvP-ArclcwAUHq9Fxr" version="20.5.3" type="github">
  <diagram id="5bD0Sm8lKXCdUboGYtR0" name="Página-1">
    <mxGraphModel dx="1497" dy="850" grid="1" gridSize="10" guides="1" tooltips="1" connect="1" arrows="1" fold="1" page="1" pageScale="1" pageWidth="827" pageHeight="1169" math="0" shadow="0">
      <root>
        <mxCell id="0" />
        <mxCell id="1" parent="0" />
        <mxCell id="29w5n5ecua9uh5Xct7Cv-1" value="Elevador 1" style="text;html=1;strokeColor=none;fillColor=none;align=center;verticalAlign=middle;whiteSpace=wrap;rounded=0;fontSize=20;" vertex="1" parent="1">
          <mxGeometry x="219" y="650" width="120" height="30" as="geometry" />
        </mxCell>
        <mxCell id="29w5n5ecua9uh5Xct7Cv-2" value="Esteira 3" style="text;html=1;strokeColor=none;fillColor=none;align=center;verticalAlign=middle;whiteSpace=wrap;rounded=0;fontSize=20;" vertex="1" parent="1">
          <mxGeometry x="960" y="80" width="120" height="30" as="geometry" />
        </mxCell>
        <mxCell id="29w5n5ecua9uh5Xct7Cv-3" value="" style="ellipse;html=1;shape=endState;fillColor=#000000;strokeColor=#ff0000;rounded=1;shadow=0;comic=0;labelBackgroundColor=none;fontFamily=Verdana;fontSize=12;fontColor=#000000;align=center;" vertex="1" parent="1">
          <mxGeometry x="540" y="20" width="30" height="30" as="geometry" />
        </mxCell>
        <mxCell id="29w5n5ecua9uh5Xct7Cv-4" style="edgeStyle=elbowEdgeStyle;html=1;labelBackgroundColor=none;endArrow=open;endSize=8;strokeColor=#ff0000;fontFamily=Verdana;fontSize=12;align=left;" edge="1" parent="1" target="29w5n5ecua9uh5Xct7Cv-3">
          <mxGeometry relative="1" as="geometry">
            <mxPoint x="430" y="35" as="sourcePoint" />
          </mxGeometry>
        </mxCell>
        <mxCell id="29w5n5ecua9uh5Xct7Cv-5" value="Esteira 2" style="text;html=1;strokeColor=none;fillColor=none;align=center;verticalAlign=middle;whiteSpace=wrap;rounded=0;fontSize=20;" vertex="1" parent="1">
          <mxGeometry x="960" y="20" width="120" height="30" as="geometry" />
        </mxCell>
        <mxCell id="29w5n5ecua9uh5Xct7Cv-6" value="Entrada" style="text;html=1;strokeColor=none;fillColor=none;align=center;verticalAlign=middle;whiteSpace=wrap;rounded=0;fontSize=20;" vertex="1" parent="1">
          <mxGeometry x="220" y="60" width="120" height="30" as="geometry" />
        </mxCell>
        <mxCell id="29w5n5ecua9uh5Xct7Cv-7" value="" style="ellipse;html=1;shape=startState;fillColor=#000000;strokeColor=#ff0000;rounded=1;shadow=0;comic=0;labelBackgroundColor=none;fontFamily=Verdana;fontSize=12;fontColor=#000000;align=center;direction=south;" vertex="1" parent="1">
          <mxGeometry x="115" y="660" width="30" height="30" as="geometry" />
        </mxCell>
        <mxCell id="29w5n5ecua9uh5Xct7Cv-8" value="0&lt;br&gt;Sem permissão para iniciar o ciclo" style="rounded=1;whiteSpace=wrap;html=1;arcSize=24;fillColor=#ffffc0;strokeColor=#ff0000;shadow=0;comic=0;labelBackgroundColor=none;fontFamily=Verdana;fontSize=12;fontColor=#000000;align=center;" vertex="1" parent="1">
          <mxGeometry x="70" y="740" width="120" height="60" as="geometry" />
        </mxCell>
        <mxCell id="29w5n5ecua9uh5Xct7Cv-9" value="Recebeu&amp;nbsp;&lt;br&gt;solicitação" style="edgeStyle=orthogonalEdgeStyle;rounded=0;orthogonalLoop=1;jettySize=auto;html=1;startArrow=none;" edge="1" parent="1" source="29w5n5ecua9uh5Xct7Cv-65" target="29w5n5ecua9uh5Xct7Cv-64">
          <mxGeometry relative="1" as="geometry" />
        </mxCell>
        <mxCell id="29w5n5ecua9uh5Xct7Cv-10" value="Iniciou&lt;br&gt;ciclo" style="edgeStyle=orthogonalEdgeStyle;rounded=0;orthogonalLoop=1;jettySize=auto;html=1;" edge="1" parent="1" source="29w5n5ecua9uh5Xct7Cv-11" target="29w5n5ecua9uh5Xct7Cv-65">
          <mxGeometry relative="1" as="geometry" />
        </mxCell>
        <mxCell id="29w5n5ecua9uh5Xct7Cv-11" value="1&lt;br&gt;Standby" style="rounded=1;whiteSpace=wrap;html=1;arcSize=24;fillColor=#ffffc0;strokeColor=#ff0000;shadow=0;comic=0;labelBackgroundColor=none;fontFamily=Verdana;fontSize=12;fontColor=#000000;align=center;" vertex="1" parent="1">
          <mxGeometry x="300" y="740" width="120" height="60" as="geometry" />
        </mxCell>
        <mxCell id="29w5n5ecua9uh5Xct7Cv-12" value="Tem&lt;br&gt;perm." style="edgeStyle=orthogonalEdgeStyle;rounded=0;orthogonalLoop=1;jettySize=auto;html=1;" edge="1" parent="1" source="29w5n5ecua9uh5Xct7Cv-8" target="29w5n5ecua9uh5Xct7Cv-11">
          <mxGeometry relative="1" as="geometry" />
        </mxCell>
        <mxCell id="29w5n5ecua9uh5Xct7Cv-13" style="edgeStyle=orthogonalEdgeStyle;html=1;labelBackgroundColor=none;endArrow=open;endSize=8;strokeColor=#ff0000;fontFamily=Verdana;fontSize=12;align=left;entryX=0.5;entryY=0;entryDx=0;entryDy=0;" edge="1" parent="1" source="29w5n5ecua9uh5Xct7Cv-7" target="29w5n5ecua9uh5Xct7Cv-8">
          <mxGeometry relative="1" as="geometry">
            <mxPoint x="219" y="-175" as="targetPoint" />
          </mxGeometry>
        </mxCell>
        <mxCell id="29w5n5ecua9uh5Xct7Cv-25" value="" style="ellipse;html=1;shape=startState;fillColor=#000000;strokeColor=#ff0000;rounded=1;shadow=0;comic=0;labelBackgroundColor=none;fontFamily=Verdana;fontSize=12;fontColor=#000000;align=center;direction=south;" vertex="1" parent="1">
          <mxGeometry x="115" y="97.5" width="30" height="30" as="geometry" />
        </mxCell>
        <mxCell id="29w5n5ecua9uh5Xct7Cv-26" value="0&lt;br&gt;Sem permissão para iniciar o ciclo" style="rounded=1;whiteSpace=wrap;html=1;arcSize=24;fillColor=#ffffc0;strokeColor=#ff0000;shadow=0;comic=0;labelBackgroundColor=none;fontFamily=Verdana;fontSize=12;fontColor=#000000;align=center;" vertex="1" parent="1">
          <mxGeometry x="70" y="177.5" width="120" height="60" as="geometry" />
        </mxCell>
        <mxCell id="29w5n5ecua9uh5Xct7Cv-27" value="1&lt;br&gt;Standby" style="rounded=1;whiteSpace=wrap;html=1;arcSize=24;fillColor=#ffffc0;strokeColor=#ff0000;shadow=0;comic=0;labelBackgroundColor=none;fontFamily=Verdana;fontSize=12;fontColor=#000000;align=center;" vertex="1" parent="1">
          <mxGeometry x="259" y="177.5" width="120" height="60" as="geometry" />
        </mxCell>
        <mxCell id="29w5n5ecua9uh5Xct7Cv-28" value="Tem&lt;br&gt;perm." style="edgeStyle=orthogonalEdgeStyle;rounded=0;orthogonalLoop=1;jettySize=auto;html=1;" edge="1" parent="1" source="29w5n5ecua9uh5Xct7Cv-26" target="29w5n5ecua9uh5Xct7Cv-27">
          <mxGeometry relative="1" as="geometry" />
        </mxCell>
        <mxCell id="29w5n5ecua9uh5Xct7Cv-29" style="edgeStyle=orthogonalEdgeStyle;html=1;labelBackgroundColor=none;endArrow=open;endSize=8;strokeColor=#ff0000;fontFamily=Verdana;fontSize=12;align=left;entryX=0.5;entryY=0;entryDx=0;entryDy=0;" edge="1" parent="1" source="29w5n5ecua9uh5Xct7Cv-25" target="29w5n5ecua9uh5Xct7Cv-26">
          <mxGeometry relative="1" as="geometry">
            <mxPoint x="219" y="-97.5" as="targetPoint" />
          </mxGeometry>
        </mxCell>
        <mxCell id="29w5n5ecua9uh5Xct7Cv-30" value="2&lt;br&gt;Aguardando&lt;br&gt;solicitação da gramp." style="rounded=1;whiteSpace=wrap;html=1;arcSize=24;fillColor=#ffffc0;strokeColor=#ff0000;shadow=0;comic=0;labelBackgroundColor=none;fontFamily=Verdana;fontSize=12;fontColor=#000000;align=center;" vertex="1" parent="1">
          <mxGeometry x="459" y="177.5" width="120" height="60" as="geometry" />
        </mxCell>
        <mxCell id="29w5n5ecua9uh5Xct7Cv-31" value="Operar" style="edgeStyle=orthogonalEdgeStyle;rounded=0;orthogonalLoop=1;jettySize=auto;html=1;fontSize=12;" edge="1" parent="1" source="29w5n5ecua9uh5Xct7Cv-27" target="29w5n5ecua9uh5Xct7Cv-30">
          <mxGeometry relative="1" as="geometry" />
        </mxCell>
        <mxCell id="29w5n5ecua9uh5Xct7Cv-32" value="3&lt;br&gt;Aguarda entregar estator" style="rounded=1;whiteSpace=wrap;html=1;arcSize=24;fillColor=#ffffc0;strokeColor=#ff0000;shadow=0;comic=0;labelBackgroundColor=none;fontFamily=Verdana;fontSize=12;fontColor=#000000;align=center;" vertex="1" parent="1">
          <mxGeometry x="620" y="297.5" width="120" height="60" as="geometry" />
        </mxCell>
        <mxCell id="29w5n5ecua9uh5Xct7Cv-33" value="Sim" style="edgeStyle=orthogonalEdgeStyle;rounded=0;orthogonalLoop=1;jettySize=auto;html=1;exitX=0.5;exitY=1;exitDx=0;exitDy=0;entryX=0.5;entryY=0;entryDx=0;entryDy=0;fontSize=12;" edge="1" parent="1" source="29w5n5ecua9uh5Xct7Cv-35" target="29w5n5ecua9uh5Xct7Cv-32">
          <mxGeometry relative="1" as="geometry" />
        </mxCell>
        <mxCell id="29w5n5ecua9uh5Xct7Cv-34" value="Não" style="edgeStyle=orthogonalEdgeStyle;rounded=0;orthogonalLoop=1;jettySize=auto;html=1;" edge="1" parent="1" source="29w5n5ecua9uh5Xct7Cv-35" target="29w5n5ecua9uh5Xct7Cv-57">
          <mxGeometry relative="1" as="geometry" />
        </mxCell>
        <mxCell id="29w5n5ecua9uh5Xct7Cv-35" value="Em posição?" style="rhombus;whiteSpace=wrap;html=1;" vertex="1" parent="1">
          <mxGeometry x="649" y="167.5" width="80" height="80" as="geometry" />
        </mxCell>
        <mxCell id="29w5n5ecua9uh5Xct7Cv-36" value="" style="edgeStyle=orthogonalEdgeStyle;rounded=0;orthogonalLoop=1;jettySize=auto;html=1;fontSize=20;" edge="1" parent="1" source="29w5n5ecua9uh5Xct7Cv-30" target="29w5n5ecua9uh5Xct7Cv-35">
          <mxGeometry relative="1" as="geometry" />
        </mxCell>
        <mxCell id="29w5n5ecua9uh5Xct7Cv-37" value="4&lt;br&gt;Fechando bandejas" style="rounded=1;whiteSpace=wrap;html=1;arcSize=24;fillColor=#ffffc0;strokeColor=#ff0000;shadow=0;comic=0;labelBackgroundColor=none;fontFamily=Verdana;fontSize=12;fontColor=#000000;align=center;" vertex="1" parent="1">
          <mxGeometry x="339" y="297.5" width="120" height="60" as="geometry" />
        </mxCell>
        <mxCell id="29w5n5ecua9uh5Xct7Cv-38" value="Subiu extrator" style="edgeStyle=orthogonalEdgeStyle;rounded=0;orthogonalLoop=1;jettySize=auto;html=1;fontSize=12;" edge="1" parent="1" source="29w5n5ecua9uh5Xct7Cv-32" target="29w5n5ecua9uh5Xct7Cv-37">
          <mxGeometry relative="1" as="geometry" />
        </mxCell>
        <mxCell id="29w5n5ecua9uh5Xct7Cv-39" value="5&lt;br&gt;Aguardando extrator descer" style="rounded=1;whiteSpace=wrap;html=1;arcSize=24;fillColor=#ffffc0;strokeColor=#ff0000;shadow=0;comic=0;labelBackgroundColor=none;fontFamily=Verdana;fontSize=12;fontColor=#000000;align=center;" vertex="1" parent="1">
          <mxGeometry x="70" y="297.5" width="120" height="60" as="geometry" />
        </mxCell>
        <mxCell id="29w5n5ecua9uh5Xct7Cv-40" value="Fechou" style="edgeStyle=orthogonalEdgeStyle;rounded=0;orthogonalLoop=1;jettySize=auto;html=1;fontSize=12;" edge="1" parent="1" source="29w5n5ecua9uh5Xct7Cv-37" target="29w5n5ecua9uh5Xct7Cv-39">
          <mxGeometry relative="1" as="geometry" />
        </mxCell>
        <mxCell id="29w5n5ecua9uh5Xct7Cv-41" value="7&lt;br&gt;Aguardando perm.&lt;br&gt;elev. 1" style="rounded=1;whiteSpace=wrap;html=1;arcSize=24;fillColor=#ffffc0;strokeColor=#ff0000;shadow=0;comic=0;labelBackgroundColor=none;fontFamily=Verdana;fontSize=12;fontColor=#000000;align=center;" vertex="1" parent="1">
          <mxGeometry x="239" y="422.5" width="120" height="60" as="geometry" />
        </mxCell>
        <mxCell id="29w5n5ecua9uh5Xct7Cv-42" value="8&lt;br&gt;Avançando transferidor" style="rounded=1;whiteSpace=wrap;html=1;arcSize=24;fillColor=#ffffc0;strokeColor=#ff0000;shadow=0;comic=0;labelBackgroundColor=none;fontFamily=Verdana;fontSize=12;fontColor=#000000;align=center;" vertex="1" parent="1">
          <mxGeometry x="439" y="422.5" width="120" height="60" as="geometry" />
        </mxCell>
        <mxCell id="29w5n5ecua9uh5Xct7Cv-43" value="Recebeu&lt;br&gt;perm." style="edgeStyle=orthogonalEdgeStyle;rounded=0;orthogonalLoop=1;jettySize=auto;html=1;fontSize=12;" edge="1" parent="1" source="29w5n5ecua9uh5Xct7Cv-41" target="29w5n5ecua9uh5Xct7Cv-42">
          <mxGeometry relative="1" as="geometry" />
        </mxCell>
        <mxCell id="29w5n5ecua9uh5Xct7Cv-44" value="10&lt;br&gt;Recuando transferidor" style="rounded=1;whiteSpace=wrap;html=1;arcSize=24;fillColor=#ffffc0;strokeColor=#ff0000;shadow=0;comic=0;labelBackgroundColor=none;fontFamily=Verdana;fontSize=12;fontColor=#000000;align=center;" vertex="1" parent="1">
          <mxGeometry x="599" y="537.5" width="120" height="60" as="geometry" />
        </mxCell>
        <mxCell id="29w5n5ecua9uh5Xct7Cv-45" value="" style="edgeStyle=orthogonalEdgeStyle;rounded=0;orthogonalLoop=1;jettySize=auto;html=1;fontSize=12;" edge="1" parent="1" source="29w5n5ecua9uh5Xct7Cv-46" target="29w5n5ecua9uh5Xct7Cv-41">
          <mxGeometry relative="1" as="geometry" />
        </mxCell>
        <mxCell id="29w5n5ecua9uh5Xct7Cv-46" value="6&lt;br&gt;Seta pacote na bendeja e solicita para empurrar" style="rounded=1;whiteSpace=wrap;html=1;arcSize=24;fillColor=#ffffc0;strokeColor=#ff0000;shadow=0;comic=0;labelBackgroundColor=none;fontFamily=Verdana;fontSize=12;fontColor=#000000;align=center;" vertex="1" parent="1">
          <mxGeometry x="70" y="422.5" width="120" height="60" as="geometry" />
        </mxCell>
        <mxCell id="29w5n5ecua9uh5Xct7Cv-47" value="Desceu" style="edgeStyle=orthogonalEdgeStyle;rounded=0;orthogonalLoop=1;jettySize=auto;html=1;fontSize=12;" edge="1" parent="1" source="29w5n5ecua9uh5Xct7Cv-39" target="29w5n5ecua9uh5Xct7Cv-46">
          <mxGeometry relative="1" as="geometry" />
        </mxCell>
        <mxCell id="29w5n5ecua9uh5Xct7Cv-48" style="edgeStyle=orthogonalEdgeStyle;rounded=0;orthogonalLoop=1;jettySize=auto;html=1;exitX=0;exitY=0.5;exitDx=0;exitDy=0;entryX=0;entryY=0.5;entryDx=0;entryDy=0;fontSize=12;" edge="1" parent="1" source="29w5n5ecua9uh5Xct7Cv-50" target="29w5n5ecua9uh5Xct7Cv-26">
          <mxGeometry relative="1" as="geometry">
            <Array as="points">
              <mxPoint x="20" y="567" />
              <mxPoint x="20" y="207" />
            </Array>
          </mxGeometry>
        </mxCell>
        <mxCell id="29w5n5ecua9uh5Xct7Cv-49" value="Abriu" style="edgeLabel;html=1;align=center;verticalAlign=middle;resizable=0;points=[];fontSize=12;" vertex="1" connectable="0" parent="29w5n5ecua9uh5Xct7Cv-48">
          <mxGeometry x="-0.8225" y="2" relative="1" as="geometry">
            <mxPoint as="offset" />
          </mxGeometry>
        </mxCell>
        <mxCell id="29w5n5ecua9uh5Xct7Cv-50" value="11&lt;br&gt;Abrindo bandeja" style="rounded=1;whiteSpace=wrap;html=1;arcSize=24;fillColor=#ffffc0;strokeColor=#ff0000;shadow=0;comic=0;labelBackgroundColor=none;fontFamily=Verdana;fontSize=12;fontColor=#000000;align=center;" vertex="1" parent="1">
          <mxGeometry x="439" y="537.5" width="120" height="60" as="geometry" />
        </mxCell>
        <mxCell id="29w5n5ecua9uh5Xct7Cv-51" value="" style="edgeStyle=orthogonalEdgeStyle;rounded=0;orthogonalLoop=1;jettySize=auto;html=1;fontSize=12;" edge="1" parent="1" source="29w5n5ecua9uh5Xct7Cv-44" target="29w5n5ecua9uh5Xct7Cv-50">
          <mxGeometry relative="1" as="geometry" />
        </mxCell>
        <mxCell id="29w5n5ecua9uh5Xct7Cv-52" value="" style="edgeStyle=orthogonalEdgeStyle;rounded=0;orthogonalLoop=1;jettySize=auto;html=1;fontSize=12;" edge="1" parent="1" source="29w5n5ecua9uh5Xct7Cv-53" target="29w5n5ecua9uh5Xct7Cv-44">
          <mxGeometry relative="1" as="geometry" />
        </mxCell>
        <mxCell id="29w5n5ecua9uh5Xct7Cv-53" value="9&lt;br&gt;Reseta pacote na bandeja" style="rounded=1;whiteSpace=wrap;html=1;arcSize=24;fillColor=#ffffc0;strokeColor=#ff0000;shadow=0;comic=0;labelBackgroundColor=none;fontFamily=Verdana;fontSize=12;fontColor=#000000;align=center;" vertex="1" parent="1">
          <mxGeometry x="639" y="422.5" width="120" height="60" as="geometry" />
        </mxCell>
        <mxCell id="29w5n5ecua9uh5Xct7Cv-54" value="Avançou" style="edgeStyle=orthogonalEdgeStyle;rounded=0;orthogonalLoop=1;jettySize=auto;html=1;fontSize=12;" edge="1" parent="1" source="29w5n5ecua9uh5Xct7Cv-42" target="29w5n5ecua9uh5Xct7Cv-53">
          <mxGeometry relative="1" as="geometry" />
        </mxCell>
        <mxCell id="29w5n5ecua9uh5Xct7Cv-55" value="Não" style="edgeStyle=orthogonalEdgeStyle;rounded=0;orthogonalLoop=1;jettySize=auto;html=1;exitX=1;exitY=0.5;exitDx=0;exitDy=0;entryX=1;entryY=0.5;entryDx=0;entryDy=0;" edge="1" parent="1" source="29w5n5ecua9uh5Xct7Cv-57" target="29w5n5ecua9uh5Xct7Cv-44">
          <mxGeometry relative="1" as="geometry">
            <Array as="points">
              <mxPoint x="940" y="207" />
              <mxPoint x="940" y="567" />
            </Array>
          </mxGeometry>
        </mxCell>
        <mxCell id="29w5n5ecua9uh5Xct7Cv-56" value="Sim" style="edgeStyle=orthogonalEdgeStyle;rounded=0;orthogonalLoop=1;jettySize=auto;html=1;exitX=0.5;exitY=1;exitDx=0;exitDy=0;" edge="1" parent="1" source="29w5n5ecua9uh5Xct7Cv-57" target="29w5n5ecua9uh5Xct7Cv-41">
          <mxGeometry relative="1" as="geometry">
            <Array as="points">
              <mxPoint x="850" y="380" />
              <mxPoint x="299" y="380" />
            </Array>
          </mxGeometry>
        </mxCell>
        <mxCell id="29w5n5ecua9uh5Xct7Cv-57" value="Pacote na bendeja?" style="rhombus;whiteSpace=wrap;html=1;" vertex="1" parent="1">
          <mxGeometry x="810" y="167.5" width="80" height="80" as="geometry" />
        </mxCell>
        <mxCell id="29w5n5ecua9uh5Xct7Cv-117" value="Não" style="edgeStyle=orthogonalEdgeStyle;rounded=0;orthogonalLoop=1;jettySize=auto;html=1;" edge="1" parent="1" source="29w5n5ecua9uh5Xct7Cv-64" target="29w5n5ecua9uh5Xct7Cv-116">
          <mxGeometry relative="1" as="geometry" />
        </mxCell>
        <mxCell id="29w5n5ecua9uh5Xct7Cv-156" style="edgeStyle=orthogonalEdgeStyle;rounded=0;orthogonalLoop=1;jettySize=auto;html=1;exitX=1;exitY=0.5;exitDx=0;exitDy=0;entryX=1;entryY=0.5;entryDx=0;entryDy=0;" edge="1" parent="1" source="29w5n5ecua9uh5Xct7Cv-64" target="29w5n5ecua9uh5Xct7Cv-138">
          <mxGeometry relative="1" as="geometry">
            <mxPoint x="870" y="770" as="targetPoint" />
            <Array as="points">
              <mxPoint x="870" y="770" />
              <mxPoint x="870" y="1040" />
            </Array>
          </mxGeometry>
        </mxCell>
        <mxCell id="29w5n5ecua9uh5Xct7Cv-64" value="3&lt;br&gt;]Tem peça no elevador 1?" style="rhombus;whiteSpace=wrap;html=1;" vertex="1" parent="1">
          <mxGeometry x="740" y="730" width="80" height="80" as="geometry" />
        </mxCell>
        <mxCell id="29w5n5ecua9uh5Xct7Cv-65" value="2&lt;br&gt;Aguardando&lt;br&gt;solicitação do&lt;br&gt;transferidor" style="rounded=1;whiteSpace=wrap;html=1;arcSize=24;fillColor=#ffffc0;strokeColor=#ff0000;shadow=0;comic=0;labelBackgroundColor=none;fontFamily=Verdana;fontSize=12;fontColor=#000000;align=center;" vertex="1" parent="1">
          <mxGeometry x="519" y="740" width="120" height="60" as="geometry" />
        </mxCell>
        <mxCell id="29w5n5ecua9uh5Xct7Cv-68" value="Elevador 2" style="text;html=1;strokeColor=none;fillColor=none;align=center;verticalAlign=middle;whiteSpace=wrap;rounded=0;fontSize=20;" vertex="1" parent="1">
          <mxGeometry x="268" y="1640" width="120" height="30" as="geometry" />
        </mxCell>
        <mxCell id="29w5n5ecua9uh5Xct7Cv-69" value="" style="ellipse;html=1;shape=startState;fillColor=#000000;strokeColor=#ff0000;rounded=1;shadow=0;comic=0;labelBackgroundColor=none;fontFamily=Verdana;fontSize=12;fontColor=#000000;align=center;direction=south;" vertex="1" parent="1">
          <mxGeometry x="98" y="1640" width="30" height="30" as="geometry" />
        </mxCell>
        <mxCell id="29w5n5ecua9uh5Xct7Cv-70" value="0&lt;br&gt;Sem permissão para iniciar o ciclo" style="rounded=1;whiteSpace=wrap;html=1;arcSize=24;fillColor=#ffffc0;strokeColor=#ff0000;shadow=0;comic=0;labelBackgroundColor=none;fontFamily=Verdana;fontSize=12;fontColor=#000000;align=center;" vertex="1" parent="1">
          <mxGeometry x="53" y="1720" width="120" height="60" as="geometry" />
        </mxCell>
        <mxCell id="29w5n5ecua9uh5Xct7Cv-71" value="Iniciou&lt;br&gt;ciclo" style="edgeStyle=orthogonalEdgeStyle;rounded=0;orthogonalLoop=1;jettySize=auto;html=1;" edge="1" parent="1" source="29w5n5ecua9uh5Xct7Cv-72" target="29w5n5ecua9uh5Xct7Cv-90">
          <mxGeometry relative="1" as="geometry" />
        </mxCell>
        <mxCell id="29w5n5ecua9uh5Xct7Cv-72" value="1&lt;br&gt;Standby" style="rounded=1;whiteSpace=wrap;html=1;arcSize=24;fillColor=#ffffc0;strokeColor=#ff0000;shadow=0;comic=0;labelBackgroundColor=none;fontFamily=Verdana;fontSize=12;fontColor=#000000;align=center;" vertex="1" parent="1">
          <mxGeometry x="261" y="1720" width="120" height="60" as="geometry" />
        </mxCell>
        <mxCell id="29w5n5ecua9uh5Xct7Cv-73" value="Tem&lt;br&gt;perm." style="edgeStyle=orthogonalEdgeStyle;rounded=0;orthogonalLoop=1;jettySize=auto;html=1;" edge="1" parent="1" source="29w5n5ecua9uh5Xct7Cv-70" target="29w5n5ecua9uh5Xct7Cv-72">
          <mxGeometry relative="1" as="geometry" />
        </mxCell>
        <mxCell id="29w5n5ecua9uh5Xct7Cv-74" style="edgeStyle=orthogonalEdgeStyle;html=1;labelBackgroundColor=none;endArrow=open;endSize=8;strokeColor=#ff0000;fontFamily=Verdana;fontSize=12;align=left;entryX=0.5;entryY=0;entryDx=0;entryDy=0;" edge="1" parent="1" source="29w5n5ecua9uh5Xct7Cv-69" target="29w5n5ecua9uh5Xct7Cv-70">
          <mxGeometry relative="1" as="geometry">
            <mxPoint x="202" y="805" as="targetPoint" />
          </mxGeometry>
        </mxCell>
        <mxCell id="29w5n5ecua9uh5Xct7Cv-75" value="Desceu" style="edgeStyle=orthogonalEdgeStyle;rounded=0;orthogonalLoop=1;jettySize=auto;html=1;exitX=0;exitY=0.5;exitDx=0;exitDy=0;entryX=1;entryY=0.5;entryDx=0;entryDy=0;" edge="1" parent="1" source="29w5n5ecua9uh5Xct7Cv-76" target="29w5n5ecua9uh5Xct7Cv-79">
          <mxGeometry relative="1" as="geometry" />
        </mxCell>
        <mxCell id="29w5n5ecua9uh5Xct7Cv-76" value="4&lt;br&gt;Desce elevador 2" style="rounded=1;whiteSpace=wrap;html=1;arcSize=24;fillColor=#ffffc0;strokeColor=#ff0000;shadow=0;comic=0;labelBackgroundColor=none;fontFamily=Verdana;fontSize=12;fontColor=#000000;align=center;" vertex="1" parent="1">
          <mxGeometry x="693" y="1840" width="120" height="60" as="geometry" />
        </mxCell>
        <mxCell id="29w5n5ecua9uh5Xct7Cv-77" value="Subiu" style="edgeStyle=orthogonalEdgeStyle;rounded=0;orthogonalLoop=1;jettySize=auto;html=1;startArrow=none;" edge="1" parent="1" source="29w5n5ecua9uh5Xct7Cv-99" target="29w5n5ecua9uh5Xct7Cv-92">
          <mxGeometry relative="1" as="geometry" />
        </mxCell>
        <mxCell id="29w5n5ecua9uh5Xct7Cv-78" value="Chegou&lt;br&gt;pacote" style="edgeStyle=orthogonalEdgeStyle;rounded=0;orthogonalLoop=1;jettySize=auto;html=1;" edge="1" parent="1" source="29w5n5ecua9uh5Xct7Cv-79" target="29w5n5ecua9uh5Xct7Cv-99">
          <mxGeometry relative="1" as="geometry" />
        </mxCell>
        <mxCell id="29w5n5ecua9uh5Xct7Cv-79" value="5&lt;br&gt;Libera transf. e aguarda pacote" style="rounded=1;whiteSpace=wrap;html=1;arcSize=24;fillColor=#ffffc0;strokeColor=#ff0000;shadow=0;comic=0;labelBackgroundColor=none;fontFamily=Verdana;fontSize=12;fontColor=#000000;align=center;" vertex="1" parent="1">
          <mxGeometry x="488" y="1840" width="120" height="60" as="geometry" />
        </mxCell>
        <mxCell id="29w5n5ecua9uh5Xct7Cv-80" style="edgeStyle=orthogonalEdgeStyle;rounded=0;orthogonalLoop=1;jettySize=auto;html=1;exitX=0.5;exitY=1;exitDx=0;exitDy=0;entryX=0;entryY=0.5;entryDx=0;entryDy=0;" edge="1" parent="1" source="29w5n5ecua9uh5Xct7Cv-82" target="29w5n5ecua9uh5Xct7Cv-70">
          <mxGeometry relative="1" as="geometry" />
        </mxCell>
        <mxCell id="29w5n5ecua9uh5Xct7Cv-81" value="Desceu" style="edgeLabel;html=1;align=center;verticalAlign=middle;resizable=0;points=[];" vertex="1" connectable="0" parent="29w5n5ecua9uh5Xct7Cv-80">
          <mxGeometry x="-0.5842" y="-2" relative="1" as="geometry">
            <mxPoint as="offset" />
          </mxGeometry>
        </mxCell>
        <mxCell id="29w5n5ecua9uh5Xct7Cv-82" value="10&lt;br&gt;Desce elevador" style="rounded=1;whiteSpace=wrap;html=1;arcSize=24;fillColor=#ffffc0;strokeColor=#ff0000;shadow=0;comic=0;labelBackgroundColor=none;fontFamily=Verdana;fontSize=12;fontColor=#000000;align=center;" vertex="1" parent="1">
          <mxGeometry x="472" y="2030" width="120" height="60" as="geometry" />
        </mxCell>
        <mxCell id="29w5n5ecua9uh5Xct7Cv-83" value="Recuou" style="edgeStyle=orthogonalEdgeStyle;rounded=0;orthogonalLoop=1;jettySize=auto;html=1;" edge="1" parent="1" source="29w5n5ecua9uh5Xct7Cv-84" target="29w5n5ecua9uh5Xct7Cv-82">
          <mxGeometry relative="1" as="geometry" />
        </mxCell>
        <mxCell id="29w5n5ecua9uh5Xct7Cv-84" value="9&lt;br&gt;Recua empurrador" style="rounded=1;whiteSpace=wrap;html=1;arcSize=24;fillColor=#ffffc0;strokeColor=#ff0000;shadow=0;comic=0;labelBackgroundColor=none;fontFamily=Verdana;fontSize=12;fontColor=#000000;align=center;" vertex="1" parent="1">
          <mxGeometry x="261" y="2030" width="120" height="60" as="geometry" />
        </mxCell>
        <mxCell id="29w5n5ecua9uh5Xct7Cv-85" value="Sim" style="edgeStyle=orthogonalEdgeStyle;rounded=0;orthogonalLoop=1;jettySize=auto;html=1;" edge="1" parent="1" source="29w5n5ecua9uh5Xct7Cv-88" target="29w5n5ecua9uh5Xct7Cv-98">
          <mxGeometry relative="1" as="geometry" />
        </mxCell>
        <mxCell id="29w5n5ecua9uh5Xct7Cv-86" style="edgeStyle=orthogonalEdgeStyle;rounded=0;orthogonalLoop=1;jettySize=auto;html=1;exitX=1;exitY=0.5;exitDx=0;exitDy=0;" edge="1" parent="1" source="29w5n5ecua9uh5Xct7Cv-88" target="29w5n5ecua9uh5Xct7Cv-84">
          <mxGeometry relative="1" as="geometry">
            <Array as="points">
              <mxPoint x="1023" y="1750" />
              <mxPoint x="1023" y="1970" />
              <mxPoint x="321" y="1970" />
            </Array>
          </mxGeometry>
        </mxCell>
        <mxCell id="29w5n5ecua9uh5Xct7Cv-87" value="Não" style="edgeLabel;html=1;align=center;verticalAlign=middle;resizable=0;points=[];" vertex="1" connectable="0" parent="29w5n5ecua9uh5Xct7Cv-86">
          <mxGeometry x="-0.8382" y="-1" relative="1" as="geometry">
            <mxPoint as="offset" />
          </mxGeometry>
        </mxCell>
        <mxCell id="29w5n5ecua9uh5Xct7Cv-88" value="Empurrador recuado?" style="rhombus;whiteSpace=wrap;html=1;" vertex="1" parent="1">
          <mxGeometry x="923" y="1710" width="80" height="80" as="geometry" />
        </mxCell>
        <mxCell id="29w5n5ecua9uh5Xct7Cv-89" value="Recebeu&lt;br&gt;solic." style="edgeStyle=orthogonalEdgeStyle;rounded=0;orthogonalLoop=1;jettySize=auto;html=1;" edge="1" parent="1" source="29w5n5ecua9uh5Xct7Cv-90" target="29w5n5ecua9uh5Xct7Cv-94">
          <mxGeometry relative="1" as="geometry" />
        </mxCell>
        <mxCell id="29w5n5ecua9uh5Xct7Cv-90" value="2&lt;br&gt;Aguardando&lt;br&gt;solicitação do elevador 1" style="rounded=1;whiteSpace=wrap;html=1;arcSize=24;fillColor=#ffffc0;strokeColor=#ff0000;shadow=0;comic=0;labelBackgroundColor=none;fontFamily=Verdana;fontSize=12;fontColor=#000000;align=center;" vertex="1" parent="1">
          <mxGeometry x="483" y="1720" width="120" height="60" as="geometry" />
        </mxCell>
        <mxCell id="29w5n5ecua9uh5Xct7Cv-91" value="Recebeu&lt;br&gt;permissão" style="edgeStyle=orthogonalEdgeStyle;rounded=0;orthogonalLoop=1;jettySize=auto;html=1;" edge="1" parent="1" source="29w5n5ecua9uh5Xct7Cv-92" target="29w5n5ecua9uh5Xct7Cv-101">
          <mxGeometry relative="1" as="geometry" />
        </mxCell>
        <mxCell id="29w5n5ecua9uh5Xct7Cv-92" value="7&lt;br&gt;Aguarda para empurrar" style="rounded=1;whiteSpace=wrap;html=1;arcSize=24;fillColor=#ffffc0;strokeColor=#ff0000;shadow=0;comic=0;labelBackgroundColor=none;fontFamily=Verdana;fontSize=12;fontColor=#000000;align=center;" vertex="1" parent="1">
          <mxGeometry x="53" y="1840" width="120" height="60" as="geometry" />
        </mxCell>
        <mxCell id="29w5n5ecua9uh5Xct7Cv-93" value="" style="edgeStyle=orthogonalEdgeStyle;rounded=0;orthogonalLoop=1;jettySize=auto;html=1;" edge="1" parent="1" source="29w5n5ecua9uh5Xct7Cv-94" target="29w5n5ecua9uh5Xct7Cv-88">
          <mxGeometry relative="1" as="geometry" />
        </mxCell>
        <mxCell id="29w5n5ecua9uh5Xct7Cv-94" value="3&lt;br&gt;Verifica liberação&lt;br&gt;da permissão" style="rounded=1;whiteSpace=wrap;html=1;arcSize=24;fillColor=#ffffc0;strokeColor=#ff0000;shadow=0;comic=0;labelBackgroundColor=none;fontFamily=Verdana;fontSize=12;fontColor=#000000;align=center;" vertex="1" parent="1">
          <mxGeometry x="693" y="1720" width="120" height="60" as="geometry" />
        </mxCell>
        <mxCell id="29w5n5ecua9uh5Xct7Cv-95" value="Não" style="edgeStyle=orthogonalEdgeStyle;rounded=0;orthogonalLoop=1;jettySize=auto;html=1;" edge="1" parent="1" source="29w5n5ecua9uh5Xct7Cv-98" target="29w5n5ecua9uh5Xct7Cv-76">
          <mxGeometry relative="1" as="geometry" />
        </mxCell>
        <mxCell id="29w5n5ecua9uh5Xct7Cv-96" style="edgeStyle=orthogonalEdgeStyle;rounded=0;orthogonalLoop=1;jettySize=auto;html=1;exitX=0.5;exitY=1;exitDx=0;exitDy=0;entryX=0.5;entryY=1;entryDx=0;entryDy=0;" edge="1" parent="1" source="29w5n5ecua9uh5Xct7Cv-98" target="29w5n5ecua9uh5Xct7Cv-99">
          <mxGeometry relative="1" as="geometry" />
        </mxCell>
        <mxCell id="29w5n5ecua9uh5Xct7Cv-97" value="Sim" style="edgeLabel;html=1;align=center;verticalAlign=middle;resizable=0;points=[];" vertex="1" connectable="0" parent="29w5n5ecua9uh5Xct7Cv-96">
          <mxGeometry x="-0.655" y="1" relative="1" as="geometry">
            <mxPoint x="-1" as="offset" />
          </mxGeometry>
        </mxCell>
        <mxCell id="29w5n5ecua9uh5Xct7Cv-98" value="Pacote no&lt;br&gt;elevador?" style="rhombus;whiteSpace=wrap;html=1;" vertex="1" parent="1">
          <mxGeometry x="923" y="1830" width="80" height="80" as="geometry" />
        </mxCell>
        <mxCell id="29w5n5ecua9uh5Xct7Cv-99" value="6&lt;br&gt;Sobe elevador" style="rounded=1;whiteSpace=wrap;html=1;arcSize=24;fillColor=#ffffc0;strokeColor=#ff0000;shadow=0;comic=0;labelBackgroundColor=none;fontFamily=Verdana;fontSize=12;fontColor=#000000;align=center;" vertex="1" parent="1">
          <mxGeometry x="261" y="1840" width="120" height="60" as="geometry" />
        </mxCell>
        <mxCell id="29w5n5ecua9uh5Xct7Cv-100" value="Avançou" style="edgeStyle=orthogonalEdgeStyle;rounded=0;orthogonalLoop=1;jettySize=auto;html=1;exitX=0.5;exitY=1;exitDx=0;exitDy=0;" edge="1" parent="1" source="29w5n5ecua9uh5Xct7Cv-101" target="29w5n5ecua9uh5Xct7Cv-84">
          <mxGeometry relative="1" as="geometry" />
        </mxCell>
        <mxCell id="29w5n5ecua9uh5Xct7Cv-101" value="8&lt;br&gt;Avança empurrador" style="rounded=1;whiteSpace=wrap;html=1;arcSize=24;fillColor=#ffffc0;strokeColor=#ff0000;shadow=0;comic=0;labelBackgroundColor=none;fontFamily=Verdana;fontSize=12;fontColor=#000000;align=center;" vertex="1" parent="1">
          <mxGeometry x="52" y="1970" width="120" height="60" as="geometry" />
        </mxCell>
        <mxCell id="29w5n5ecua9uh5Xct7Cv-119" value="Subiu" style="edgeStyle=orthogonalEdgeStyle;rounded=0;orthogonalLoop=1;jettySize=auto;html=1;" edge="1" parent="1" source="29w5n5ecua9uh5Xct7Cv-116" target="29w5n5ecua9uh5Xct7Cv-118">
          <mxGeometry relative="1" as="geometry" />
        </mxCell>
        <mxCell id="29w5n5ecua9uh5Xct7Cv-116" value="4&lt;br&gt;Sobe elevador 1" style="rounded=1;whiteSpace=wrap;html=1;arcSize=24;fillColor=#ffffc0;strokeColor=#ff0000;shadow=0;comic=0;labelBackgroundColor=none;fontFamily=Verdana;fontSize=12;fontColor=#000000;align=center;" vertex="1" parent="1">
          <mxGeometry x="720" y="870" width="120" height="60" as="geometry" />
        </mxCell>
        <mxCell id="29w5n5ecua9uh5Xct7Cv-125" value="\Recuou" style="edgeStyle=orthogonalEdgeStyle;rounded=0;orthogonalLoop=1;jettySize=auto;html=1;entryX=1;entryY=0.5;entryDx=0;entryDy=0;" edge="1" parent="1" source="29w5n5ecua9uh5Xct7Cv-118" target="29w5n5ecua9uh5Xct7Cv-120">
          <mxGeometry relative="1" as="geometry">
            <mxPoint x="400.0000000000002" y="900" as="targetPoint" />
          </mxGeometry>
        </mxCell>
        <mxCell id="29w5n5ecua9uh5Xct7Cv-166" style="edgeStyle=orthogonalEdgeStyle;rounded=0;orthogonalLoop=1;jettySize=auto;html=1;exitX=0.5;exitY=1;exitDx=0;exitDy=0;entryX=1;entryY=0.5;entryDx=0;entryDy=0;" edge="1" parent="1" source="29w5n5ecua9uh5Xct7Cv-118" target="29w5n5ecua9uh5Xct7Cv-132">
          <mxGeometry relative="1" as="geometry" />
        </mxCell>
        <mxCell id="29w5n5ecua9uh5Xct7Cv-118" value="5&lt;br&gt;Aguardando recuar o empurrador" style="rounded=1;whiteSpace=wrap;html=1;arcSize=24;fillColor=#ffffc0;strokeColor=#ff0000;shadow=0;comic=0;labelBackgroundColor=none;fontFamily=Verdana;fontSize=12;fontColor=#000000;align=center;" vertex="1" parent="1">
          <mxGeometry x="519.5" y="870" width="120" height="60" as="geometry" />
        </mxCell>
        <mxCell id="29w5n5ecua9uh5Xct7Cv-128" value="Recebeu" style="edgeStyle=orthogonalEdgeStyle;rounded=0;orthogonalLoop=1;jettySize=auto;html=1;" edge="1" parent="1" source="29w5n5ecua9uh5Xct7Cv-120" target="29w5n5ecua9uh5Xct7Cv-127">
          <mxGeometry relative="1" as="geometry" />
        </mxCell>
        <mxCell id="29w5n5ecua9uh5Xct7Cv-167" style="edgeStyle=orthogonalEdgeStyle;rounded=0;orthogonalLoop=1;jettySize=auto;html=1;exitX=0.5;exitY=1;exitDx=0;exitDy=0;entryX=0;entryY=0.5;entryDx=0;entryDy=0;" edge="1" parent="1" source="29w5n5ecua9uh5Xct7Cv-120" target="29w5n5ecua9uh5Xct7Cv-132">
          <mxGeometry relative="1" as="geometry" />
        </mxCell>
        <mxCell id="29w5n5ecua9uh5Xct7Cv-120" value="6&lt;br&gt;Aguarda permissão da esteira para descer" style="rounded=1;whiteSpace=wrap;html=1;arcSize=24;fillColor=#ffffc0;strokeColor=#ff0000;shadow=0;comic=0;labelBackgroundColor=none;fontFamily=Verdana;fontSize=12;fontColor=#000000;align=center;" vertex="1" parent="1">
          <mxGeometry x="300" y="870" width="120" height="60" as="geometry" />
        </mxCell>
        <mxCell id="29w5n5ecua9uh5Xct7Cv-146" value="Desceu" style="edgeStyle=orthogonalEdgeStyle;rounded=0;orthogonalLoop=1;jettySize=auto;html=1;" edge="1" parent="1" source="29w5n5ecua9uh5Xct7Cv-127" target="29w5n5ecua9uh5Xct7Cv-138">
          <mxGeometry relative="1" as="geometry" />
        </mxCell>
        <mxCell id="29w5n5ecua9uh5Xct7Cv-127" value="7&lt;br&gt;Desce elevador 1" style="rounded=1;whiteSpace=wrap;html=1;arcSize=24;fillColor=#ffffc0;strokeColor=#ff0000;shadow=0;comic=0;labelBackgroundColor=none;fontFamily=Verdana;fontSize=12;fontColor=#000000;align=center;" vertex="1" parent="1">
          <mxGeometry x="70" y="870" width="120" height="60" as="geometry" />
        </mxCell>
        <mxCell id="29w5n5ecua9uh5Xct7Cv-132" value="Libera movimento da esteira 1" style="rounded=1;whiteSpace=wrap;html=1;arcSize=24;fillColor=#ffffc0;strokeColor=#ff0000;shadow=0;comic=0;labelBackgroundColor=none;fontFamily=Verdana;fontSize=12;fontColor=#000000;align=center;" vertex="1" parent="1">
          <mxGeometry x="411" y="950" width="120" height="60" as="geometry" />
        </mxCell>
        <mxCell id="29w5n5ecua9uh5Xct7Cv-168" style="edgeStyle=orthogonalEdgeStyle;rounded=0;orthogonalLoop=1;jettySize=auto;html=1;exitX=0;exitY=0.5;exitDx=0;exitDy=0;entryX=0;entryY=0.5;entryDx=0;entryDy=0;" edge="1" parent="1" source="29w5n5ecua9uh5Xct7Cv-138" target="29w5n5ecua9uh5Xct7Cv-8">
          <mxGeometry relative="1" as="geometry">
            <mxPoint x="30" y="760" as="targetPoint" />
            <Array as="points">
              <mxPoint x="40" y="1040" />
              <mxPoint x="40" y="770" />
            </Array>
          </mxGeometry>
        </mxCell>
        <mxCell id="29w5n5ecua9uh5Xct7Cv-138" value="8&lt;br&gt;Aguarda esteira 1 tirar a peça" style="rounded=1;whiteSpace=wrap;html=1;arcSize=24;fillColor=#ffffc0;strokeColor=#ff0000;shadow=0;comic=0;labelBackgroundColor=none;fontFamily=Verdana;fontSize=12;fontColor=#000000;align=center;" vertex="1" parent="1">
          <mxGeometry x="70" y="1010" width="120" height="60" as="geometry" />
        </mxCell>
        <mxCell id="29w5n5ecua9uh5Xct7Cv-169" value="Esteira 1" style="text;html=1;strokeColor=none;fillColor=none;align=center;verticalAlign=middle;whiteSpace=wrap;rounded=0;fontSize=20;" vertex="1" parent="1">
          <mxGeometry x="239" y="1110" width="120" height="30" as="geometry" />
        </mxCell>
        <mxCell id="29w5n5ecua9uh5Xct7Cv-170" value="" style="ellipse;html=1;shape=startState;fillColor=#000000;strokeColor=#ff0000;rounded=1;shadow=0;comic=0;labelBackgroundColor=none;fontFamily=Verdana;fontSize=12;fontColor=#000000;align=center;direction=south;" vertex="1" parent="1">
          <mxGeometry x="115" y="1169" width="30" height="30" as="geometry" />
        </mxCell>
        <mxCell id="29w5n5ecua9uh5Xct7Cv-171" value="0&lt;br&gt;Sem permissão para iniciar o ciclo" style="rounded=1;whiteSpace=wrap;html=1;arcSize=24;fillColor=#ffffc0;strokeColor=#ff0000;shadow=0;comic=0;labelBackgroundColor=none;fontFamily=Verdana;fontSize=12;fontColor=#000000;align=center;" vertex="1" parent="1">
          <mxGeometry x="70" y="1249" width="120" height="60" as="geometry" />
        </mxCell>
        <mxCell id="29w5n5ecua9uh5Xct7Cv-172" value="Recebeu&amp;nbsp;&lt;br&gt;solicitação" style="edgeStyle=orthogonalEdgeStyle;rounded=0;orthogonalLoop=1;jettySize=auto;html=1;startArrow=none;" edge="1" parent="1" source="29w5n5ecua9uh5Xct7Cv-180" target="29w5n5ecua9uh5Xct7Cv-179">
          <mxGeometry relative="1" as="geometry" />
        </mxCell>
        <mxCell id="29w5n5ecua9uh5Xct7Cv-173" value="Iniciou&lt;br&gt;ciclo" style="edgeStyle=orthogonalEdgeStyle;rounded=0;orthogonalLoop=1;jettySize=auto;html=1;" edge="1" parent="1" source="29w5n5ecua9uh5Xct7Cv-174" target="29w5n5ecua9uh5Xct7Cv-180">
          <mxGeometry relative="1" as="geometry" />
        </mxCell>
        <mxCell id="29w5n5ecua9uh5Xct7Cv-174" value="1&lt;br&gt;Standby" style="rounded=1;whiteSpace=wrap;html=1;arcSize=24;fillColor=#ffffc0;strokeColor=#ff0000;shadow=0;comic=0;labelBackgroundColor=none;fontFamily=Verdana;fontSize=12;fontColor=#000000;align=center;" vertex="1" parent="1">
          <mxGeometry x="300" y="1249" width="120" height="60" as="geometry" />
        </mxCell>
        <mxCell id="29w5n5ecua9uh5Xct7Cv-175" value="Tem&lt;br&gt;perm." style="edgeStyle=orthogonalEdgeStyle;rounded=0;orthogonalLoop=1;jettySize=auto;html=1;" edge="1" parent="1" source="29w5n5ecua9uh5Xct7Cv-171" target="29w5n5ecua9uh5Xct7Cv-174">
          <mxGeometry relative="1" as="geometry" />
        </mxCell>
        <mxCell id="29w5n5ecua9uh5Xct7Cv-176" style="edgeStyle=orthogonalEdgeStyle;html=1;labelBackgroundColor=none;endArrow=open;endSize=8;strokeColor=#ff0000;fontFamily=Verdana;fontSize=12;align=left;entryX=0.5;entryY=0;entryDx=0;entryDy=0;" edge="1" parent="1" source="29w5n5ecua9uh5Xct7Cv-170" target="29w5n5ecua9uh5Xct7Cv-171">
          <mxGeometry relative="1" as="geometry">
            <mxPoint x="219" y="334" as="targetPoint" />
          </mxGeometry>
        </mxCell>
        <mxCell id="29w5n5ecua9uh5Xct7Cv-177" value="Não" style="edgeStyle=orthogonalEdgeStyle;rounded=0;orthogonalLoop=1;jettySize=auto;html=1;" edge="1" parent="1" source="29w5n5ecua9uh5Xct7Cv-179" target="29w5n5ecua9uh5Xct7Cv-182">
          <mxGeometry relative="1" as="geometry" />
        </mxCell>
        <mxCell id="29w5n5ecua9uh5Xct7Cv-178" style="edgeStyle=orthogonalEdgeStyle;rounded=0;orthogonalLoop=1;jettySize=auto;html=1;exitX=1;exitY=0.5;exitDx=0;exitDy=0;entryX=1;entryY=0.5;entryDx=0;entryDy=0;" edge="1" parent="1" source="29w5n5ecua9uh5Xct7Cv-179" target="29w5n5ecua9uh5Xct7Cv-193">
          <mxGeometry relative="1" as="geometry">
            <mxPoint x="870" y="1279" as="targetPoint" />
            <Array as="points">
              <mxPoint x="870" y="1279" />
              <mxPoint x="870" y="1549" />
            </Array>
          </mxGeometry>
        </mxCell>
        <mxCell id="29w5n5ecua9uh5Xct7Cv-179" value="3&lt;br&gt;]Tem peça no elevador 1?" style="rhombus;whiteSpace=wrap;html=1;" vertex="1" parent="1">
          <mxGeometry x="740" y="1239" width="80" height="80" as="geometry" />
        </mxCell>
        <mxCell id="29w5n5ecua9uh5Xct7Cv-180" value="2&lt;br&gt;Aguardando&lt;br&gt;solicitação do&lt;br&gt;transferidor" style="rounded=1;whiteSpace=wrap;html=1;arcSize=24;fillColor=#ffffc0;strokeColor=#ff0000;shadow=0;comic=0;labelBackgroundColor=none;fontFamily=Verdana;fontSize=12;fontColor=#000000;align=center;" vertex="1" parent="1">
          <mxGeometry x="519" y="1249" width="120" height="60" as="geometry" />
        </mxCell>
        <mxCell id="29w5n5ecua9uh5Xct7Cv-181" value="Subiu" style="edgeStyle=orthogonalEdgeStyle;rounded=0;orthogonalLoop=1;jettySize=auto;html=1;" edge="1" parent="1" source="29w5n5ecua9uh5Xct7Cv-182" target="29w5n5ecua9uh5Xct7Cv-185">
          <mxGeometry relative="1" as="geometry" />
        </mxCell>
        <mxCell id="29w5n5ecua9uh5Xct7Cv-182" value="4&lt;br&gt;Sobe elevador 1" style="rounded=1;whiteSpace=wrap;html=1;arcSize=24;fillColor=#ffffc0;strokeColor=#ff0000;shadow=0;comic=0;labelBackgroundColor=none;fontFamily=Verdana;fontSize=12;fontColor=#000000;align=center;" vertex="1" parent="1">
          <mxGeometry x="720" y="1379" width="120" height="60" as="geometry" />
        </mxCell>
        <mxCell id="29w5n5ecua9uh5Xct7Cv-183" value="\Recuou" style="edgeStyle=orthogonalEdgeStyle;rounded=0;orthogonalLoop=1;jettySize=auto;html=1;entryX=1;entryY=0.5;entryDx=0;entryDy=0;" edge="1" parent="1" source="29w5n5ecua9uh5Xct7Cv-185" target="29w5n5ecua9uh5Xct7Cv-188">
          <mxGeometry relative="1" as="geometry">
            <mxPoint x="400.0000000000002" y="1409" as="targetPoint" />
          </mxGeometry>
        </mxCell>
        <mxCell id="29w5n5ecua9uh5Xct7Cv-184" style="edgeStyle=orthogonalEdgeStyle;rounded=0;orthogonalLoop=1;jettySize=auto;html=1;exitX=0.5;exitY=1;exitDx=0;exitDy=0;entryX=1;entryY=0.5;entryDx=0;entryDy=0;" edge="1" parent="1" source="29w5n5ecua9uh5Xct7Cv-185" target="29w5n5ecua9uh5Xct7Cv-191">
          <mxGeometry relative="1" as="geometry" />
        </mxCell>
        <mxCell id="29w5n5ecua9uh5Xct7Cv-185" value="5&lt;br&gt;Aguardando recuar o empurrador" style="rounded=1;whiteSpace=wrap;html=1;arcSize=24;fillColor=#ffffc0;strokeColor=#ff0000;shadow=0;comic=0;labelBackgroundColor=none;fontFamily=Verdana;fontSize=12;fontColor=#000000;align=center;" vertex="1" parent="1">
          <mxGeometry x="519.5" y="1379" width="120" height="60" as="geometry" />
        </mxCell>
        <mxCell id="29w5n5ecua9uh5Xct7Cv-186" value="Recebeu" style="edgeStyle=orthogonalEdgeStyle;rounded=0;orthogonalLoop=1;jettySize=auto;html=1;" edge="1" parent="1" source="29w5n5ecua9uh5Xct7Cv-188" target="29w5n5ecua9uh5Xct7Cv-190">
          <mxGeometry relative="1" as="geometry" />
        </mxCell>
        <mxCell id="29w5n5ecua9uh5Xct7Cv-187" style="edgeStyle=orthogonalEdgeStyle;rounded=0;orthogonalLoop=1;jettySize=auto;html=1;exitX=0.5;exitY=1;exitDx=0;exitDy=0;entryX=0;entryY=0.5;entryDx=0;entryDy=0;" edge="1" parent="1" source="29w5n5ecua9uh5Xct7Cv-188" target="29w5n5ecua9uh5Xct7Cv-191">
          <mxGeometry relative="1" as="geometry" />
        </mxCell>
        <mxCell id="29w5n5ecua9uh5Xct7Cv-188" value="6&lt;br&gt;Aguarda permissão da esteira para descer" style="rounded=1;whiteSpace=wrap;html=1;arcSize=24;fillColor=#ffffc0;strokeColor=#ff0000;shadow=0;comic=0;labelBackgroundColor=none;fontFamily=Verdana;fontSize=12;fontColor=#000000;align=center;" vertex="1" parent="1">
          <mxGeometry x="300" y="1379" width="120" height="60" as="geometry" />
        </mxCell>
        <mxCell id="29w5n5ecua9uh5Xct7Cv-189" value="Desceu" style="edgeStyle=orthogonalEdgeStyle;rounded=0;orthogonalLoop=1;jettySize=auto;html=1;" edge="1" parent="1" source="29w5n5ecua9uh5Xct7Cv-190" target="29w5n5ecua9uh5Xct7Cv-193">
          <mxGeometry relative="1" as="geometry" />
        </mxCell>
        <mxCell id="29w5n5ecua9uh5Xct7Cv-190" value="7&lt;br&gt;Desce elevador 1" style="rounded=1;whiteSpace=wrap;html=1;arcSize=24;fillColor=#ffffc0;strokeColor=#ff0000;shadow=0;comic=0;labelBackgroundColor=none;fontFamily=Verdana;fontSize=12;fontColor=#000000;align=center;" vertex="1" parent="1">
          <mxGeometry x="70" y="1379" width="120" height="60" as="geometry" />
        </mxCell>
        <mxCell id="29w5n5ecua9uh5Xct7Cv-191" value="Libera movimento da esteira 1" style="rounded=1;whiteSpace=wrap;html=1;arcSize=24;fillColor=#ffffc0;strokeColor=#ff0000;shadow=0;comic=0;labelBackgroundColor=none;fontFamily=Verdana;fontSize=12;fontColor=#000000;align=center;" vertex="1" parent="1">
          <mxGeometry x="411" y="1459" width="120" height="60" as="geometry" />
        </mxCell>
        <mxCell id="29w5n5ecua9uh5Xct7Cv-192" style="edgeStyle=orthogonalEdgeStyle;rounded=0;orthogonalLoop=1;jettySize=auto;html=1;exitX=0;exitY=0.5;exitDx=0;exitDy=0;entryX=0;entryY=0.5;entryDx=0;entryDy=0;" edge="1" parent="1" source="29w5n5ecua9uh5Xct7Cv-193" target="29w5n5ecua9uh5Xct7Cv-171">
          <mxGeometry relative="1" as="geometry">
            <mxPoint x="30" y="1269" as="targetPoint" />
            <Array as="points">
              <mxPoint x="40" y="1549" />
              <mxPoint x="40" y="1279" />
            </Array>
          </mxGeometry>
        </mxCell>
        <mxCell id="29w5n5ecua9uh5Xct7Cv-193" value="8&lt;br&gt;Aguarda esteira 1 tirar a peça" style="rounded=1;whiteSpace=wrap;html=1;arcSize=24;fillColor=#ffffc0;strokeColor=#ff0000;shadow=0;comic=0;labelBackgroundColor=none;fontFamily=Verdana;fontSize=12;fontColor=#000000;align=center;" vertex="1" parent="1">
          <mxGeometry x="70" y="1519" width="120" height="60" as="geometry" />
        </mxCell>
      </root>
    </mxGraphModel>
  </diagram>
</mxfile>
